<?xml version="1.0" encoding="UTF-8"?>
<svg id="Calque_2" data-name="Calque 2" xmlns="http://www.w3.org/2000/svg" viewBox="0 0 169.54 31.25">
  <defs>
    <style>
      .cls-1, .cls-2 {
        fill: #575757;
      }

      .cls-2 {
        opacity: .95;
      }
    </style>
  </defs>
  <g id="Calque_1-2" data-name="Calque 1">
    <g>
      <g>
        <path d="M0,28.54V.75l18.98,19.85V2.52h3.93v27.61L3.93,10.33v18.22H0Z"/>
        <path d="M103.9,2.52l7.2,18.03,7.3-18.03h4.3l-11.68,27.98-11.41-27.98h4.3Z"/>
        <polygon points="157.12 1.64 144.24 29.29 148.2 29.29 157.02 9.85 165.44 29.29 169.54 29.29 157.12 1.64"/>
      </g>
      <g>
        <path d="M70.91,20.06c-2.19,5.33-7.83,8.23-13.11,6.74-5.93-1.67-9.46-8.18-7.86-14.51,1.6-6.33,7.73-10.11,13.67-8.44.2.06.4.12.59.19l1.02-3.29c-.25-.09-.51-.17-.77-.24-7.68-2.17-15.61,2.72-17.68,10.88-2.07,8.17,2.5,16.57,10.17,18.74,1.22.34,2.46.51,3.7.51,2.18,0,4.36-.53,6.35-1.56,3.09-1.61,5.54-4.32,6.91-7.65l-3-1.38Z"/>
        <path class="cls-1" d="M38.58,30.06l.54,1.19,9.83-4.94c-.3-.33-.59-.67-.86-1.03l-9.51,4.78Z"/>
        <path class="cls-2" d="M46.49,22.5l-9.23,4.65.54,1.19,9.26-4.66c-.21-.38-.39-.77-.57-1.18Z"/>
        <path class="cls-1" d="M45.47,19.45l-9.5,4.77.48,1.34,9.24-4.63c-.09-.48-.17-.98-.22-1.47Z"/>
        <path class="cls-1" d="M67.97,16.97c-.62-.08-1.2-.28-1.72-.6l-12.68,6.38c.34.33.72.63,1.12.9l13.29-6.68Z"/>
        <path class="cls-1" d="M64.79,14.99c-.24-.36-.44-.75-.58-1.17l-12.48,6.28c.17.4.38.79.61,1.15l12.45-6.26Z"/>
        <path class="cls-1" d="M63.96,11.79c.05-.6.2-1.16.44-1.68l-13.38,6.73c.01.47.06.93.15,1.39l12.8-6.44Z"/>
        <ellipse class="cls-2" cx="69.74" cy="11.45" rx="4.55" ry="4.81"/>
      </g>
    </g>
  </g>
</svg>